name rise38.3101peak57.3503fall81.6963.mot
datacolumns 19
datarows 26
range 13.81662000000000 13.85828300000000
endheader
time	ground_force1_vx	ground_force1_vy	ground_force1_vz	ground_force1_px	ground_force1_py	ground_force1_pz	ground_force2_vx	ground_force2_vy	ground_force2_vz	ground_force2_px	ground_force2_py	ground_force2_pz	ground_torque1_x	ground_torque1_y	ground_torque1_z	ground_torque2_x	ground_torque2_y	ground_torque2_z	
13.81662000000000	-52.87688500000000	830.52442699999995	59.39406800000000	0.15437300000000	0.00000000000000	0.10602100000000	-2.69811100000000	11.17836400000000	3.14405200000000	0.00000000000000	0.00000000000000	0.00000000000000	0.00000000000000	28.72328500000000	0.00000000000000	0.00000000000000	1.17346500000000	0.00000000000000	
13.81828600000000	-52.99106100000000	828.61500500000000	59.29966700000000	0.15365700000000	0.00000000000000	0.10602000000000	-3.57725400000000	15.95656100000000	4.30359100000000	0.00000000000000	0.00000000000000	0.00000000000000	0.00000000000000	28.61064300000000	0.00000000000000	0.00000000000000	1.61756400000000	0.00000000000000	
13.81995000000000	-53.11093600000000	826.56035999999995	59.17589900000000	0.15294600000000	0.00000000000000	0.10601300000000	-4.49628500000000	21.32546900000000	5.55928500000000	0.00000000000000	0.00000000000000	0.00000000000000	0.00000000000000	28.49314600000000	0.00000000000000	0.00000000000000	2.10183600000000	0.00000000000000	
13.82161700000000	-53.23723900000000	824.36037999999996	59.02222800000000	0.15224200000000	0.00000000000000	0.10600200000000	-5.42039600000000	27.18439400000000	6.87523500000000	0.35993100000000	0.00000000000000	-0.06861100000000	0.00000000000000	28.37096900000000	0.00000000000000	0.00000000000000	4.71605000000000	0.00000000000000	
13.82328300000000	-53.37066400000000	822.01504699999998	58.83817500000000	0.15154600000000	0.00000000000000	0.10598600000000	-6.31302700000000	33.41533600000000	8.21219900000000	0.36473100000000	0.00000000000000	-0.06957100000000	0.00000000000000	28.24428500000000	0.00000000000000	0.00000000000000	5.69382600000000	0.00000000000000	
13.82495100000000	-53.51186700000000	819.52442699999995	58.62332600000000	0.15085800000000	0.00000000000000	0.10596400000000	-7.13858100000000	39.89308600000000	9.53061500000000	0.36921100000000	0.00000000000000	-0.07043500000000	0.00000000000000	28.11327200000000	0.00000000000000	0.00000000000000	6.67666600000000	0.00000000000000	
13.82662100000000	-53.66146200000000	816.88866199999995	58.37732600000000	0.15018000000000	0.00000000000000	0.10593600000000	-7.86497200000000	46.49555000000000	10.79355500000000	0.37342300000000	0.00000000000000	-0.07121900000000	0.00000000000000	27.97810500000000	0.00000000000000	0.00000000000000	7.63874600000000	0.00000000000000	
13.82828700000000	-53.82001700000000	814.10796400000004	58.09988700000000	0.14951300000000	0.00000000000000	0.10590300000000	-8.46570000000000	53.11294500000000	11.96922100000000	0.37740600000000	0.00000000000000	-0.07193400000000	0.00000000000000	27.83895900000000	0.00000000000000	0.00000000000000	8.55719700000000	0.00000000000000	
13.82995300000000	-53.98805200000000	811.18260699999996	57.79078400000000	0.14885600000000	0.00000000000000	0.10586300000000	-8.92123100000000	59.65488100000000	13.03273600000000	0.38119200000000	0.00000000000000	-0.07259100000000	0.00000000000000	27.69600800000000	0.00000000000000	0.00000000000000	9.41346500000000	0.00000000000000	
13.83161600000000	-54.16603600000000	808.11292100000003	57.44985900000000	0.14821300000000	0.00000000000000	0.10581800000000	-9.21963500000000	66.05485400000001	13.96712000000000	0.38480500000000	0.00000000000000	-0.07319800000000	0.00000000000000	27.54941900000000	0.00000000000000	0.00000000000000	10.19414000000000	0.00000000000000	
13.83328400000000	-54.35438200000000	804.89928599999996	57.07701900000000	0.14758200000000	0.00000000000000	0.10576600000000	-9.35650100000000	72.27207199999999	14.76347400000000	0.38826500000000	0.00000000000000	-0.07376000000000	0.00000000000000	27.39935500000000	0.00000000000000	0.00000000000000	10.89124000000000	0.00000000000000	
13.83495700000000	-54.55344300000000	801.54211999999995	56.67224100000000	0.14696500000000	0.00000000000000	0.10570700000000	-9.33425600000000	78.29086200000000	15.42046700000000	0.39158800000000	0.00000000000000	-0.07428400000000	0.00000000000000	27.24597500000000	0.00000000000000	0.00000000000000	11.50200300000000	0.00000000000000	
13.83661600000000	-54.76351100000000	798.04187899999999	56.23556800000000	0.14636300000000	0.00000000000000	0.10564200000000	-9.16104400000000	84.11812200000000	15.94329300000000	0.39478800000000	0.00000000000000	-0.07477400000000	0.00000000000000	27.08942600000000	0.00000000000000	0.00000000000000	12.02829100000000	0.00000000000000	
13.83828200000000	-54.98481300000000	794.39904700000000	55.76710800000000	0.14577700000000	0.00000000000000	0.10557000000000	-8.84931800000000	89.77934300000000	16.34227000000000	0.39787300000000	0.00000000000000	-0.07523600000000	0.00000000000000	26.92985000000000	0.00000000000000	0.00000000000000	12.47570800000000	0.00000000000000	
13.83995000000000	-55.21750700000000	790.61413200000004	55.26704200000000	0.14520600000000	0.00000000000000	0.10549100000000	-8.41433300000000	95.31380500000000	16.63126000000000	0.40085400000000	0.00000000000000	-0.07567100000000	0.00000000000000	26.76737800000000	0.00000000000000	0.00000000000000	12.85256000000000	0.00000000000000	
13.84162200000000	-55.46168300000000	786.68765800000006	54.73561300000000	0.14465200000000	0.00000000000000	0.10540500000000	-7.87266700000000	100.76947300000000	16.82608000000000	0.40373500000000	0.00000000000000	-0.07608400000000	0.00000000000000	26.60213000000000	0.00000000000000	0.00000000000000	13.16877800000000	0.00000000000000	
13.84328300000000	-55.71735300000000	782.62016300000005	54.17313400000000	0.14411500000000	0.00000000000000	0.10531100000000	-7.24088700000000	106.19805900000000	16.94301500000000	0.40652400000000	0.00000000000000	-0.07647600000000	0.00000000000000	26.43421400000000	0.00000000000000	0.00000000000000	13.43488100000000	0.00000000000000	
13.84495500000000	-55.98445700000000	778.41219100000001	53.57998200000000	0.14359600000000	0.00000000000000	0.10521100000000	-6.53444800000000	111.65062700000000	16.99756200000000	0.40922300000000	0.00000000000000	-0.07685200000000	0.00000000000000	26.26372800000000	0.00000000000000	0.00000000000000	13.66106600000000	0.00000000000000	
13.84661400000000	-56.26285300000000	774.06429000000003	52.95660000000000	0.14309500000000	0.00000000000000	0.10510400000000	-5.76686100000000	117.17398200000000	17.00343900000000	0.41183600000000	0.00000000000000	-0.07721100000000	0.00000000000000	26.09075500000000	0.00000000000000	0.00000000000000	13.85648500000000	0.00000000000000	
13.84828900000000	-56.55232000000000	769.57700799999998	52.30349700000000	0.14261200000000	0.00000000000000	0.10498900000000	-4.94916300000000	122.80799399999999	16.97190600000000	0.41436600000000	0.00000000000000	-0.07755700000000	0.00000000000000	25.91536500000000	0.00000000000000	0.00000000000000	14.02871100000000	0.00000000000000	
13.84995400000000	-56.85255600000000	764.95088799999996	51.62124200000000	0.14214800000000	0.00000000000000	0.10486700000000	-4.08965700000000	128.58387999999999	16.91138700000000	0.41681400000000	0.00000000000000	-0.07789000000000	0.00000000000000	25.73761400000000	0.00000000000000	0.00000000000000	14.18341900000000	0.00000000000000	
13.85162100000000	-57.16317100000000	760.18646600000000	50.91046800000000	0.14170200000000	0.00000000000000	0.10473700000000	-3.19391300000000	134.52342700000000	16.82737200000000	0.41918200000000	0.00000000000000	-0.07821300000000	0.00000000000000	25.55754500000000	0.00000000000000	0.00000000000000	14.32427200000000	0.00000000000000	
13.85328400000000	-57.48369200000000	755.28427099999999	50.17186800000000	0.14127400000000	0.00000000000000	0.10460000000000	-2.26496500000000	140.63901899999999	16.72255400000000	0.42147100000000	0.00000000000000	-0.07852600000000	0.00000000000000	25.37518600000000	0.00000000000000	0.00000000000000	14.45296600000000	0.00000000000000	
13.85495600000000	-57.81355700000000	750.24481700000001	49.40619400000000	0.14086600000000	0.00000000000000	0.10445600000000	-1.30366800000000	146.93433400000001	16.59714800000000	0.42368200000000	0.00000000000000	-0.07883000000000	0.00000000000000	25.19054900000000	0.00000000000000	0.00000000000000	14.56942900000000	0.00000000000000	
13.85662200000000	-58.15212000000000	745.06861100000003	48.61425500000000	0.14047500000000	0.00000000000000	0.10430500000000	-0.30915100000000	153.40553299999999	16.44933900000000	0.42581400000000	0.00000000000000	-0.07912700000000	0.00000000000000	25.00363400000000	0.00000000000000	0.00000000000000	14.67210000000000	0.00000000000000	
13.85828300000000	-58.49864200000000	739.75614399999995	47.79691400000000	0.14010300000000	0.00000000000000	0.10414600000000	0.72068100000000	160.04275300000000	16.27579300000000	0.42786900000000	0.00000000000000	-0.07941800000000	0.00000000000000	24.81442700000000	0.00000000000000	0.00000000000000	14.75829300000000	0.00000000000000	
